# xmcd
#
# Track frame offsets:
#	150
#	14421
#	26244
#	39004
#	54894
#	73943
#	94072
#	114827
#	130977
#
# Disc length: 1957 seconds
#
# Revision: 1
# Processed by: cddbd v1.5.2PL0 Copyright (c) Steve Scherf et al.
# Submitted via: audiograbber 1.83.01
#
DISCID=6e07a309
DTITLE=Wonderful Johnson - Authentic Memphis Samich
DYEAR=2003
DGENRE=Americana Pop
TTITLE0=I Want Your Number
TTITLE1=She Wants More
TTITLE2=Connection
TTITLE3=17 Years Down
TTITLE4=Undone
TTITLE5=Cry
TTITLE6=Rescue Me
TTITLE7=Don't Lay Me Down
TTITLE8=She Said
EXTD=
EXTT0=
EXTT1=
EXTT2=
EXTT3=
EXTT4=
EXTT5=
EXTT6=
EXTT7=
EXTT8=
PLAYORDER=
